<svg width="797" height="845" viewBox="0 0 797 845" fill="none" xmlns="http://www.w3.org/2000/svg">
<path d="M351.505 565.352V665H338.401V590.696L305.281 665H296.065L262.801 590.552V665H249.697V565.352H263.809L300.673 647.72L337.537 565.352H351.505ZM405.553 666.008C398.929 666.008 392.977 664.856 387.697 662.552C382.513 660.152 378.433 656.888 375.457 652.76C372.481 648.536 370.945 643.688 370.849 638.216H384.817C385.297 642.92 387.217 646.904 390.577 650.168C394.033 653.336 399.025 654.92 405.553 654.92C411.793 654.92 416.689 653.384 420.241 650.312C423.889 647.144 425.713 643.112 425.713 638.216C425.713 634.376 424.657 631.256 422.545 628.856C420.433 626.456 417.793 624.632 414.625 623.384C411.457 622.136 407.185 620.792 401.809 619.352C395.185 617.624 389.857 615.896 385.825 614.168C381.889 612.44 378.481 609.752 375.601 606.104C372.817 602.36 371.425 597.368 371.425 591.128C371.425 585.656 372.817 580.808 375.601 576.584C378.385 572.36 382.273 569.096 387.265 566.792C392.353 564.488 398.161 563.336 404.689 563.336C414.097 563.336 421.777 565.688 427.729 570.392C433.777 575.096 437.185 581.336 437.953 589.112H423.553C423.073 585.272 421.057 581.912 417.505 579.032C413.953 576.056 409.249 574.568 403.393 574.568C397.921 574.568 393.457 576.008 390.001 578.888C386.545 581.672 384.817 585.608 384.817 590.696C384.817 594.344 385.825 597.32 387.841 599.624C389.953 601.928 392.497 603.704 395.473 604.952C398.545 606.104 402.817 607.448 408.289 608.984C414.913 610.808 420.241 612.632 424.273 614.456C428.305 616.184 431.761 618.92 434.641 622.664C437.521 626.312 438.961 631.304 438.961 637.64C438.961 642.536 437.665 647.144 435.073 651.464C432.481 655.784 428.641 659.288 423.553 661.976C418.465 664.664 412.465 666.008 405.553 666.008ZM453.348 614.744C453.348 604.952 455.556 596.168 459.972 588.392C464.388 580.52 470.388 574.376 477.972 569.96C485.652 565.544 494.148 563.336 503.46 563.336C514.404 563.336 523.956 565.976 532.116 571.256C540.276 576.536 546.228 584.024 549.972 593.72H534.276C531.492 587.672 527.46 583.016 522.18 579.752C516.996 576.488 510.756 574.856 503.46 574.856C496.452 574.856 490.164 576.488 484.596 579.752C479.028 583.016 474.66 587.672 471.492 593.72C468.324 599.672 466.74 606.68 466.74 614.744C466.74 622.712 468.324 629.72 471.492 635.768C474.66 641.72 479.028 646.328 484.596 649.592C490.164 652.856 496.452 654.488 503.46 654.488C510.756 654.488 516.996 652.904 522.18 649.736C527.46 646.472 531.492 641.816 534.276 635.768H549.972C546.228 645.368 540.276 652.808 532.116 658.088C523.956 663.272 514.404 665.864 503.46 665.864C494.148 665.864 485.652 663.704 477.972 659.384C470.388 654.968 464.388 648.872 459.972 641.096C455.556 633.32 453.348 624.536 453.348 614.744ZM288.644 720.632V731.288H245.012V765.128H280.436V775.784H245.012V821H231.908V720.632H288.644ZM363.799 798.68H320.023L311.959 821H298.135L334.423 721.208H349.543L385.687 821H371.863L363.799 798.68ZM360.055 788.024L341.911 737.336L323.767 788.024H360.055ZM480.414 821H467.31L414.606 741.08V821H401.502V720.488H414.606L467.31 800.264V720.488H480.414V821ZM534.576 822.008C527.952 822.008 522 820.856 516.72 818.552C511.536 816.152 507.456 812.888 504.48 808.76C501.504 804.536 499.968 799.688 499.872 794.216H513.84C514.32 798.92 516.24 802.904 519.6 806.168C523.056 809.336 528.048 810.92 534.576 810.92C540.816 810.92 545.712 809.384 549.264 806.312C552.912 803.144 554.736 799.112 554.736 794.216C554.736 790.376 553.68 787.256 551.568 784.856C549.456 782.456 546.816 780.632 543.648 779.384C540.48 778.136 536.208 776.792 530.832 775.352C524.208 773.624 518.88 771.896 514.848 770.168C510.912 768.44 507.504 765.752 504.624 762.104C501.84 758.36 500.448 753.368 500.448 747.128C500.448 741.656 501.84 736.808 504.624 732.584C507.408 728.36 511.296 725.096 516.288 722.792C521.376 720.488 527.184 719.336 533.712 719.336C543.12 719.336 550.8 721.688 556.752 726.392C562.8 731.096 566.208 737.336 566.976 745.112H552.576C552.096 741.272 550.08 737.912 546.528 735.032C542.976 732.056 538.272 730.568 532.416 730.568C526.944 730.568 522.48 732.008 519.024 734.888C515.568 737.672 513.84 741.608 513.84 746.696C513.84 750.344 514.848 753.32 516.864 755.624C518.976 757.928 521.52 759.704 524.496 760.952C527.568 762.104 531.84 763.448 537.312 764.984C543.936 766.808 549.264 768.632 553.296 770.456C557.328 772.184 560.784 774.92 563.664 778.664C566.544 782.312 567.984 787.304 567.984 793.64C567.984 798.536 566.688 803.144 564.096 807.464C561.504 811.784 557.664 815.288 552.576 817.976C547.488 820.664 541.488 822.008 534.576 822.008Z" fill="black"/>
<g clip-path="url(#clip0)">
<path d="M397.971 210.001C372.607 210.001 351.971 230.637 351.971 256.001C351.971 281.365 372.607 302.001 397.971 302.001C423.335 302.001 443.971 281.365 443.971 256.001C443.971 230.637 423.336 210.001 397.971 210.001V210.001ZM397.971 282.001C383.635 282.001 371.971 270.338 371.971 256.001C371.971 241.664 383.635 230.001 397.971 230.001C412.307 230.001 423.971 241.664 423.971 256.001C423.971 270.338 412.308 282.001 397.971 282.001Z" fill="black"/>
<path d="M397.971 162.001C346.139 162.001 303.971 204.169 303.971 256.001C303.971 307.833 346.139 350.001 397.971 350.001C449.803 350.001 491.971 307.833 491.971 256.001C491.971 204.169 449.803 162.001 397.971 162.001V162.001ZM397.971 330.001C357.167 330.001 323.971 296.805 323.971 256.001C323.971 215.197 357.167 182.001 397.971 182.001C438.775 182.001 471.971 215.197 471.971 256.001C471.971 296.805 438.775 330.001 397.971 330.001Z" fill="black"/>
<path d="M653.579 7.23199C652.05 1.925 646.509 -1.132 641.201 0.391999L590.255 15.074C585.449 15.803 581.766 19.952 581.766 24.961V96.0928C577.048 93.1798 571.716 91.1718 566.01 90.3178C544.775 68.7689 520.019 51.7179 492.353 39.6339C462.529 26.6069 430.774 20.001 397.971 20.001C334.934 20.001 275.669 44.5489 231.095 89.1238C186.521 133.698 161.972 192.963 161.972 256.001C161.972 286.368 167.628 315.777 178.775 343.595C171.659 346.467 164.992 350.777 159.232 356.536C136.256 379.513 136.256 416.898 159.232 439.875L228.428 509.071C230.381 511.023 232.94 512 235.499 512C238.058 512 240.618 511.023 242.57 509.071L287.203 464.438C321.14 482.491 359.27 492 397.971 492C444.652 492 489.788 478.392 528.502 452.646C533.101 449.587 534.35 443.38 531.291 438.781C528.233 434.182 522.025 432.934 517.427 435.992C482.006 459.55 440.698 472.001 397.971 472.001C364.607 472.001 331.715 464.279 302.06 449.583L311.767 439.876C334.743 416.899 334.743 379.514 311.767 356.537C291.02 335.792 258.527 333.777 235.5 350.497C224.591 342.575 211.556 338.867 198.653 339.355C187.589 312.968 181.973 284.965 181.973 256.002C181.973 136.899 278.87 40.0019 397.972 40.0019C451.454 40.0019 501.631 59.1419 541.118 94.2348C527.294 101.117 517.768 115.39 517.768 131.852C517.768 155.011 536.609 173.852 559.768 173.852C572.317 173.852 583.59 168.313 591.293 159.56C606.173 189.364 613.972 222.361 613.972 256.002C613.972 298.73 601.52 340.036 577.963 375.456C574.904 380.055 576.153 386.263 580.752 389.32C582.455 390.453 584.378 390.995 586.281 390.995C589.516 390.995 592.691 389.428 594.617 386.532C620.364 347.82 633.972 302.682 633.972 256.002C633.972 213.843 622.756 172.602 601.507 136.482C601.675 134.961 601.768 133.418 601.768 131.853V32.5729L646.741 19.612C652.046 18.08 655.108 12.539 653.579 7.23199V7.23199ZM242.569 370.679C257.748 355.501 282.445 355.502 297.623 370.679C312.801 385.857 312.801 410.554 297.623 425.733L235.498 487.858L173.373 425.733C158.195 410.554 158.195 385.857 173.373 370.679C180.962 363.09 190.932 359.295 200.9 359.295C210.868 359.295 220.838 363.09 228.427 370.679C232.333 374.583 238.664 374.583 242.569 370.679V370.679ZM559.766 153.852C547.635 153.852 537.766 143.983 537.766 131.852C537.766 119.721 547.635 109.852 559.766 109.852C571.897 109.852 581.766 119.721 581.766 131.852C581.766 143.983 571.897 153.852 559.766 153.852Z" fill="black"/>
<path d="M397.971 444.668C502.002 444.668 586.638 360.032 586.638 256.001C586.638 250.479 582.161 246.001 576.638 246.001C571.115 246.001 566.638 250.479 566.638 256.001C566.638 349.004 490.974 424.668 397.971 424.668C392.448 424.668 387.971 429.146 387.971 434.668C387.971 440.19 392.448 444.668 397.971 444.668V444.668Z" fill="black"/>
<path d="M387.971 387.334C387.971 392.856 392.448 397.334 397.971 397.334C475.903 397.334 539.304 333.933 539.304 256.001C539.304 250.479 534.827 246.001 529.304 246.001C523.781 246.001 519.304 250.479 519.304 256.001C519.304 322.904 464.874 377.334 397.971 377.334C392.448 377.334 387.971 381.812 387.971 387.334V387.334Z" fill="black"/>
<path d="M557.781 405.811C555.151 405.811 552.571 406.872 550.701 408.731C548.841 410.601 547.781 413.171 547.781 415.811C547.781 418.441 548.841 421.021 550.701 422.881C552.571 424.741 555.141 425.811 557.781 425.811C560.411 425.811 562.991 424.742 564.851 422.881C566.711 421.02 567.781 418.441 567.781 415.811C567.781 413.171 566.711 410.601 564.851 408.731C562.991 406.871 560.411 405.811 557.781 405.811Z" fill="black"/>
</g>
<defs>
<clipPath id="clip0">
<rect width="512" height="512" fill="white" transform="translate(142)"/>
</clipPath>
</defs>
</svg>
